<?xml version="1.0" standalone="no"?>
<!DOCTYPE svg PUBLIC "-//W3C//DTD SVG 20010904//EN"
 "http://www.w3.org/TR/2001/REC-SVG-20010904/DTD/svg10.dtd">
<svg version="1.0" xmlns="http://www.w3.org/2000/svg"
 width="2400.000000pt" height="1260.000000pt" viewBox="0 0 2400.000000 1260.000000"
 preserveAspectRatio="xMidYMid meet">
<metadata>
Created by potrace 1.16, written by Peter Selinger 2001-2019
</metadata>
<g transform="translate(0.000000,1260.000000) scale(0.100000,-0.100000)"
fill="#000000" stroke="none">
<path d="M9590 7926 l0 -2074 88 -16 c48 -9 166 -32 262 -51 l175 -34 23 27
c13 15 45 52 72 83 58 67 165 142 240 168 49 17 62 18 127 7 39 -7 70 -9 68
-5 -3 3 7 17 20 29 14 13 25 29 25 36 0 8 -34 53 -76 101 -87 100 -116 156
-116 222 0 123 92 218 237 242 124 20 201 -20 240 -126 11 -27 25 -54 32 -58
7 -4 25 -18 39 -30 l26 -23 -25 -29 c-20 -24 -23 -35 -15 -54 12 -34 12 -120
0 -152 -6 -15 -31 -43 -56 -64 -46 -37 -89 -110 -100 -170 -6 -29 -3 -32 86
-85 60 -36 103 -70 123 -97 16 -22 40 -47 53 -54 31 -17 57 -63 72 -126 7 -33
18 -54 28 -57 10 -3 80 -17 157 -31 77 -15 218 -42 314 -60 l173 -34 19 22 18
22 1 -27 c0 -44 27 -34 61 22 17 28 34 50 38 50 4 0 4 -25 1 -56 -4 -36 -2
-57 4 -60 6 -2 247 -48 536 -104 599 -115 991 -191 1165 -225 66 -12 206 -39
310 -60 105 -20 465 -89 800 -154 l610 -118 3 2255 c1 1241 0 2257 -2 2260 -4
3 -110 18 -721 97 -104 13 -435 56 -735 95 -816 105 -1065 137 -1400 180 -168
22 -357 47 -420 55 -109 15 -440 57 -1890 244 -344 45 -640 83 -657 86 l-33 6
0 -2075z m2285 1270 c43 -20 107 -57 142 -82 108 -77 276 -246 400 -402 l19
-24 94 71 c232 174 452 243 616 193 175 -54 277 -208 305 -462 14 -123 1 -295
-36 -475 -14 -66 -21 -121 -17 -123 32 -10 248 -139 324 -192 115 -80 262
-225 310 -305 109 -182 94 -349 -41 -479 -114 -108 -275 -168 -567 -212 l-31
-4 18 -88 c50 -235 59 -463 24 -610 -65 -276 -291 -340 -561 -159 -91 60 -223
180 -320 291 -44 49 -93 105 -109 123 l-31 35 -54 -45 c-136 -112 -311 -201
-448 -227 -229 -45 -418 85 -487 335 -39 141 -28 431 24 648 l18 77 -66 37
c-448 246 -664 484 -649 718 14 217 237 375 606 429 51 7 95 15 97 18 3 2 -4
49 -14 104 -48 249 -53 497 -12 624 26 82 70 149 120 184 55 38 86 46 172 42
64 -2 89 -9 154 -40z"/>
<path d="M11650 9083 c-74 -38 -118 -196 -105 -378 7 -87 31 -269 45 -325 4
-19 11 -47 14 -61 l6 -26 187 -6 c104 -4 204 -9 223 -13 34 -5 37 -3 98 75 34
44 96 116 138 160 l75 79 -74 89 c-251 301 -493 463 -607 406z"/>
<path d="M12888 8796 c-87 -31 -177 -82 -269 -152 -41 -31 -78 -60 -83 -65 -6
-5 21 -54 66 -121 42 -62 107 -164 145 -226 l69 -112 155 -54 c84 -29 182 -65
216 -79 35 -14 65 -22 67 -18 15 24 49 247 53 357 11 256 -48 419 -172 475
-58 27 -163 25 -247 -5z"/>
<path d="M12330 8374 c-47 -52 -88 -102 -93 -109 -9 -16 -20 -13 173 -49 74
-14 150 -30 168 -35 17 -5 32 -7 32 -4 0 7 -188 293 -192 293 -2 0 -41 -43
-88 -96z"/>
<path d="M11650 8133 c1 -5 24 -80 53 -167 l52 -160 97 160 c80 132 93 160 79
166 -22 9 -281 10 -281 1z"/>
<path d="M11342 8115 c-163 -30 -299 -86 -373 -152 -54 -49 -72 -86 -71 -151
1 -112 100 -250 275 -380 143 -107 323 -211 337 -195 4 4 22 51 40 103 18 52
53 139 76 192 l43 98 -50 136 c-27 74 -65 186 -83 247 l-34 112 -43 2 c-24 1
-77 -4 -117 -12z"/>
<path d="M12051 8011 c-71 -109 -176 -289 -206 -352 l-17 -35 66 -150 c37 -82
106 -225 154 -318 l87 -169 45 -13 c77 -23 310 -72 433 -92 l118 -19 44 61
c54 77 136 213 202 336 l51 95 -62 140 c-69 155 -194 407 -231 466 -24 37 -26
37 -172 72 -122 29 -265 56 -420 81 -19 3 -34 -14 -92 -103z m453 -234 c242
-111 294 -484 83 -583 -102 -47 -215 -22 -315 71 -269 249 -84 656 232 512z"/>
<path d="M13004 7758 c45 -95 87 -184 93 -198 11 -25 11 -24 30 20 11 25 35
87 53 138 28 78 31 95 19 103 -14 9 -265 109 -273 109 -3 0 33 -78 78 -172z"/>
<path d="M13322 7683 c-13 -38 -48 -128 -79 -201 l-55 -133 65 -182 c35 -100
72 -212 82 -249 l18 -68 37 0 c56 0 193 27 288 57 152 47 262 134 278 218 31
165 -165 386 -515 579 -46 25 -86 46 -90 46 -3 0 -17 -30 -29 -67z"/>
<path d="M11721 7383 c-13 -32 -36 -95 -51 -140 l-28 -82 91 -36 c115 -47 197
-75 197 -69 0 2 -17 39 -39 82 -21 42 -60 124 -86 182 -26 58 -51 109 -55 113
-4 4 -17 -18 -29 -50z"/>
<path d="M13048 7087 c-26 -45 -69 -117 -97 -159 -60 -92 -65 -88 126 -88
l131 0 -42 133 c-24 72 -49 147 -57 165 l-14 32 -47 -83z"/>
<path d="M11587 6953 c-28 -125 -40 -227 -40 -348 -1 -206 46 -343 141 -409
109 -77 319 -28 522 119 36 26 77 59 92 72 l26 25 -82 121 c-46 67 -109 166
-140 219 -32 54 -63 101 -69 106 -7 5 -64 26 -127 47 -93 31 -231 83 -297 111
-7 4 -17 -19 -26 -63z"/>
<path d="M12291 6729 c28 -46 73 -114 100 -152 l47 -67 67 72 c37 40 80 89 96
110 l30 37 -23 5 c-13 3 -93 18 -178 35 -85 16 -163 33 -173 37 -13 5 -3 -18
34 -77z"/>
<path d="M12745 6638 c-33 -40 -95 -112 -139 -161 -69 -77 -77 -89 -65 -105
208 -269 448 -465 594 -487 168 -25 221 251 134 696 l-21 106 -187 6 c-102 4
-202 9 -222 13 -34 6 -37 4 -94 -68z"/>
<path d="M4322 7866 c-12 -7 -19 -16 -15 -21 4 -4 3 -5 -4 -2 -20 12 -284
-143 -423 -248 -30 -23 -87 -58 -127 -77 -102 -50 -165 -99 -219 -171 -126
-168 -218 -437 -314 -916 -23 -113 -43 -208 -46 -212 -21 -35 369 -48 486 -16
80 21 212 85 263 127 34 29 37 35 37 85 0 30 -5 57 -11 61 -28 17 -86 197
-104 325 l-7 45 127 84 126 84 -5 35 c-3 20 -13 101 -22 181 -17 146 -40 226
-54 186 -4 -14 -9 -16 -14 -8 -4 7 -12 12 -17 12 -6 0 -7 -4 -4 -10 3 -5 -6
-16 -22 -22 -15 -7 -35 -20 -45 -28 -38 -34 -48 -40 -68 -40 -17 0 -20 -4 -15
-21 5 -15 4 -19 -4 -15 -6 4 -11 14 -11 22 0 8 -4 12 -10 9 -19 -12 -10 78 11
123 41 84 120 92 189 19 l40 -41 42 24 c49 27 224 135 251 155 16 11 17 28 15
148 l-3 135 -23 -12z"/>
<path d="M16895 7831 c-22 -10 -58 -38 -80 -62 -47 -51 -138 -194 -185 -291
-17 -38 -34 -68 -37 -68 -3 0 -23 16 -46 35 -119 102 -250 113 -329 29 -36
-40 -64 -97 -85 -174 -22 -82 -24 -341 -4 -482 l13 -97 -81 -87 c-305 -326
-335 -660 -68 -754 31 -11 77 -20 103 -20 l46 0 -6 -37 c-38 -239 -32 -474 16
-569 53 -108 173 -94 268 31 19 25 45 59 57 74 12 15 50 81 84 145 63 120 64
121 99 86 49 -50 138 -91 201 -92 174 -4 269 222 239 571 -7 75 -15 159 -19
186 l-7 50 70 75 c105 114 218 283 215 322 0 7 -18 28 -40 47 l-39 33 -21 -48
c-35 -83 -199 -310 -211 -294 -2 3 -18 57 -35 121 l-32 117 35 168 c19 93 37
179 40 192 2 12 11 22 19 22 8 0 15 1 15 3 0 1 -24 50 -54 108 l-54 106 -9
-55 -8 -55 -85 -23 c-47 -12 -86 -21 -87 -20 -1 1 -29 44 -61 96 l-59 94 26
55 c58 121 108 209 157 274 61 81 89 104 108 87 14 -11 36 -113 36 -166 0 -22
8 -36 29 -52 16 -12 37 -40 47 -62 16 -35 19 -38 26 -21 11 30 0 230 -16 288
-32 119 -97 157 -191 114z m-498 -416 c43 -18 119 -78 134 -106 8 -17 3 -41
-29 -122 -22 -56 -53 -137 -69 -180 -28 -77 -31 -80 -109 -137 l-79 -58 -9 26
c-5 15 -9 110 -10 212 -1 154 2 195 17 245 22 68 50 113 81 125 29 12 32 12
73 -5z m365 -472 c75 -184 98 -247 98 -270 0 -31 -50 -217 -103 -388 -30 -94
-39 -112 -68 -133 -40 -28 -188 -102 -205 -102 -11 0 -74 134 -114 246 l-22
61 22 79 c11 44 44 155 72 247 43 142 56 171 79 188 45 32 193 109 210 109 9
0 23 -16 31 -37z m-559 -478 c29 -99 33 -124 24 -154 -5 -20 -24 -106 -42
-191 l-32 -155 -39 3 c-106 7 -177 52 -190 120 -16 86 15 193 91 312 43 67
145 194 151 187 2 -1 19 -56 37 -122z m792 -450 c8 -150 -9 -269 -48 -344 -47
-92 -116 -89 -221 9 l-59 56 16 30 c22 43 117 293 117 309 0 8 39 43 88 79
l87 66 7 -37 c4 -21 10 -96 13 -168z m-565 -114 c0 -4 25 -47 56 -94 43 -66
54 -92 49 -109 -14 -46 -118 -235 -168 -305 -52 -71 -102 -113 -117 -97 -32
36 -39 254 -15 449 8 66 15 121 15 121 0 1 20 5 45 9 25 3 63 12 83 20 45 17
52 17 52 6z"/>
<path d="M16613 6745 c-96 -41 -167 -248 -129 -378 19 -64 44 -87 95 -87 48 0
109 65 142 151 41 111 30 263 -23 306 -24 19 -53 22 -85 8z"/>
<path d="M18154 7321 c-31 -19 -74 -70 -74 -89 0 -5 10 -16 23 -25 12 -8 31
-31 42 -51 17 -31 25 -36 55 -36 19 0 40 -4 47 -8 22 -14 32 -57 21 -98 -18
-72 -15 -113 12 -142 73 -78 250 53 250 186 l0 44 37 -7 c67 -12 90 -31 112
-90 12 -31 21 -61 21 -68 0 -7 14 -36 30 -65 56 -96 172 -151 293 -138 151 15
295 138 338 288 l7 27 -51 -27 c-66 -35 -142 -37 -184 -6 -15 12 -54 57 -86
102 -149 210 -326 257 -503 136 l-64 -44 -41 41 c-82 82 -213 114 -285 70z"/>
<path d="M6175 6275 c-70 -19 -128 -82 -146 -159 -10 -47 -10 -67 2 -119 l15
-62 39 1 c31 1 45 8 66 34 15 18 30 44 34 57 11 46 36 73 65 73 25 0 58 -20
137 -82 8 -7 10 1 6 30 -4 28 -1 43 12 55 36 36 105 9 105 -41 0 -24 20 -72
30 -72 11 0 0 100 -17 154 -19 60 -74 117 -129 134 -53 15 -155 14 -219 -3z"/>
<path d="M17371 5285 c-221 -34 -369 -87 -418 -152 -26 -34 -28 -43 -27 -132
0 -92 2 -102 52 -227 53 -131 99 -226 315 -644 148 -288 171 -354 164 -475 -4
-71 -14 -116 -47 -213 -23 -68 -40 -126 -37 -129 3 -2 25 4 49 15 51 23 112
87 142 151 12 25 35 66 51 90 38 56 41 128 8 184 -18 30 -25 69 -38 217 -32
373 -93 623 -190 785 -20 32 -34 59 -33 60 2 1 35 -1 73 -6 39 -4 143 -8 233
-8 89 -1 162 -3 162 -4 0 -2 -9 -30 -20 -63 -21 -61 -60 -239 -60 -271 1 -14
4 -12 16 10 17 32 30 35 37 8 3 -14 11 -18 25 -14 12 3 35 -2 53 -11 18 -9 38
-16 44 -16 7 0 25 -6 40 -14 15 -8 34 -12 41 -9 8 3 14 0 14 -6 0 -7 6 -11 13
-9 17 4 97 -23 97 -34 0 -4 5 -8 11 -8 7 0 18 -8 25 -17 11 -14 13 -15 9 -2
-4 10 0 16 10 16 11 0 15 -6 12 -19 -3 -11 -1 -16 6 -11 6 4 8 -2 5 -15 -13
-47 12 -8 31 51 13 37 47 98 86 152 77 108 175 294 204 388 23 77 44 194 37
206 -3 5 -28 -3 -56 -17 -144 -71 -364 -21 -486 111 l-55 59 -112 -75 c-116
-78 -182 -107 -243 -107 -41 0 -107 25 -102 39 1 6 36 44 77 86 41 41 71 79
67 83 -14 13 -189 11 -285 -3z"/>
<path d="M10364 4459 c5 -51 14 -190 36 -544 5 -88 12 -239 16 -335 3 -96 8
-191 9 -210 2 -19 5 -105 6 -190 1 -102 4 -140 9 -110 4 25 8 38 8 29 2 -20
32 -48 32 -30 0 22 16 10 40 -29 14 -22 31 -40 38 -40 8 0 31 -18 52 -40 21
-22 41 -40 44 -40 4 0 29 -21 56 -47 33 -32 50 -56 51 -73 0 -23 1 -23 10 -5
6 13 7 2 3 -35 -9 -83 2 -58 26 60 47 235 50 169 -35 703 -29 185 -28 170 -14
161 8 -4 9 1 4 17 -7 22 -7 23 11 4 18 -18 19 -18 24 4 3 12 7 21 10 21 5 -2
62 21 125 51 22 10 46 19 53 19 6 0 12 4 12 8 0 5 38 23 85 41 47 19 85 37 85
41 0 15 47 29 59 17 14 -14 14 -2 0 26 -10 21 -10 21 5 3 9 -11 16 -26 16 -35
0 -8 3 -12 6 -9 6 7 -42 187 -82 311 -29 86 -17 79 -159 97 -270 34 -492 104
-623 197 l-23 16 5 -54z"/>
<path d="M5870 3839 c-13 -9 -12 -10 3 -5 10 3 36 -4 59 -15 22 -11 49 -18 60
-15 11 2 37 -4 56 -15 20 -10 43 -17 52 -14 8 3 29 1 45 -4 26 -8 27 -9 7 -10
-13 -1 -20 -5 -17 -11 4 -7 -3 -7 -20 0 -15 6 -31 8 -36 5 -5 -3 -18 -1 -29 5
-17 9 -22 7 -29 -14 -6 -15 -21 -27 -40 -31 -37 -8 -40 -21 -6 -29 27 -7 32
-24 13 -45 -11 -11 -10 -13 4 -8 28 10 30 -9 2 -22 -32 -14 -35 -14 -28 4 5
13 3 13 -18 2 -13 -6 -37 -22 -55 -34 -17 -13 -36 -23 -41 -23 -14 0 -132 -63
-128 -68 3 -2 13 1 24 7 14 8 24 6 38 -5 18 -13 17 -14 -11 -8 -23 4 -26 3
-15 -5 8 -6 11 -11 6 -11 -5 0 2 -10 15 -22 18 -15 19 -19 6 -15 -21 8 -80
-19 -72 -32 2 -5 -4 -11 -14 -14 -19 -5 -22 7 -8 30 9 14 -18 7 -40 -10 -7 -5
-25 -7 -40 -4 -26 5 -26 4 -8 -9 10 -8 13 -14 7 -14 -7 0 -12 -13 -12 -30 0
-16 2 -30 4 -30 2 0 30 16 62 35 32 19 66 35 75 35 10 0 21 5 25 12 5 7 3 8
-6 3 -9 -6 -11 -4 -6 4 5 7 14 10 22 7 8 -3 29 3 47 14 17 11 40 23 50 27 15
4 16 8 5 14 -9 6 -3 9 17 9 17 0 41 9 55 20 14 11 32 20 41 20 8 0 19 4 25 9
21 19 126 71 144 71 26 0 100 -30 100 -40 0 -10 -60 -45 -177 -105 -48 -25
-113 -59 -143 -76 -58 -33 -153 -85 -285 -154 -44 -23 -89 -46 -100 -52 -11
-6 -33 -16 -50 -23 -19 -8 -25 -14 -16 -18 7 -2 18 2 23 9 8 11 9 11 5 -1 -2
-8 -15 -15 -28 -14 -14 1 -33 -9 -44 -22 -11 -13 -25 -24 -30 -24 -6 0 -3 5 5
10 8 5 11 10 5 9 -13 0 -123 -58 -112 -59 5 0 18 5 30 11 21 11 21 10 6 -6 -9
-9 -32 -18 -51 -20 -41 -4 -78 -24 -78 -43 0 -23 -24 -39 -45 -31 -33 13 -42
9 -15 -6 29 -16 23 -19 -12 -6 -17 6 -29 5 -43 -6 -12 -9 -14 -13 -5 -11 8 3
21 -2 29 -9 10 -10 17 -11 24 -4 14 14 47 14 47 1 0 -5 -9 -10 -20 -10 -11 0
-20 -4 -20 -10 0 -5 9 -10 21 -10 12 0 19 -5 16 -12 -2 -7 -10 -12 -16 -10 -7
1 -23 -10 -36 -25 l-24 -28 -1 38 0 37 -52 0 c-38 0 -49 -3 -38 -10 8 -5 23
-10 33 -10 9 0 17 -4 17 -10 0 -5 -20 -10 -45 -10 -42 0 -61 -13 -33 -22 9 -3
8 -9 -5 -22 -20 -20 -22 -36 -4 -36 8 0 7 -4 -3 -10 -22 -15 -30 -12 -23 8 6
15 5 15 -11 2 -17 -13 -16 -15 15 -29 43 -19 43 -20 37 -26 -3 -4 -21 3 -41
14 -27 15 -38 17 -47 8 -10 -9 -11 -9 -5 1 5 10 1 13 -11 12 -11 -1 -28 -1
-39 0 -15 1 -13 4 10 11 17 5 35 7 42 5 6 -3 13 1 16 8 7 18 -40 18 -68 0 -14
-9 -35 -13 -52 -10 -66 11 -93 19 -93 27 0 5 -6 6 -13 3 -8 -3 -26 0 -40 5
-15 6 -27 7 -27 3 0 -6 117 -39 955 -262 l289 -78 401 200 c220 110 402 202
404 204 3 3 -5 46 -18 97 -75 299 -114 486 -131 639 -10 83 -20 102 -53 94
-11 -3 -16 -2 -13 2 10 10 -205 63 -228 56 -14 -3 -17 -2 -9 3 8 6 -50 25
-160 53 -94 24 -176 45 -182 47 -5 1 -17 -2 -25 -8z m310 -719 c42 -30 55 -66
36 -95 -8 -13 -73 -56 -143 -97 -70 -40 -135 -77 -144 -83 -92 -57 -122 -67
-193 -63 -54 2 -79 9 -103 26 -39 28 -52 75 -28 102 21 24 363 222 402 234 42
12 142 -2 173 -24z"/>
<path d="M6986 3482 c11 -73 24 -198 39 -382 l6 -75 315 154 c283 139 314 157
308 175 -3 12 -10 25 -15 30 -7 8 -630 175 -655 176 -7 0 -7 -23 2 -78z"/>
<path d="M20765 3334 c-453 -210 -749 -347 -860 -400 -57 -27 -64 -33 -38 -31
17 1 29 5 26 10 -2 4 1 7 6 7 6 0 11 -5 11 -12 0 -6 9 -3 20 7 26 23 33 15 34
-35 0 -30 4 -40 17 -40 9 0 24 -17 35 -37 10 -21 21 -40 24 -43 3 -3 13 -22
23 -43 9 -20 25 -54 35 -75 9 -20 19 -39 22 -42 3 -3 14 -24 25 -47 11 -22 22
-40 26 -38 3 2 11 -13 19 -33 7 -20 16 -39 19 -42 11 -9 31 -50 31 -63 0 -8
10 -19 23 -26 18 -9 19 -10 2 -6 -11 2 -27 0 -35 -6 -13 -9 -12 -10 2 -5 10 3
20 1 24 -5 3 -6 12 -8 19 -5 7 2 16 1 21 -4 5 -5 61 -22 124 -38 63 -17 166
-45 229 -62 l113 -30 312 152 c171 84 493 243 716 353 223 111 537 266 698
345 160 79 292 146 292 149 0 5 -1577 343 -1590 341 -3 -1 -194 -89 -425 -196z"/>
</g>
</svg>
